<svg width="64" height="70" viewBox="0 0 64 70" fill="none" xmlns="http://www.w3.org/2000/svg">
<path fill-rule="evenodd" clip-rule="evenodd" d="M63.1853 52.4994C63.6894 51.6564 64 50.6994 64 49.8449V20.1557C64 19.3013 63.6894 18.35 63.1853 17.5012L32 35.0003L63.1853 52.4994Z" fill="#01D5A2"/>
<path fill-rule="evenodd" clip-rule="evenodd" d="M34.7722 69.3549L61.2279 54.5103C61.9898 54.0831 62.6814 53.3425 63.1854 52.4995L32 35.0004L0.814697 52.4995C1.31873 53.3425 2.0103 54.0831 2.77221 54.5103L29.2279 69.3549C30.7517 70.215 33.2484 70.215 34.7722 69.3549Z" fill="#01D5A2"/>
<path fill-rule="evenodd" clip-rule="evenodd" d="M63.1853 17.5013C62.6813 16.6582 61.9897 15.9177 61.2278 15.4905L34.7722 0.645841C33.2484 -0.208607 30.7516 -0.208607 29.2278 0.645841L2.77216 15.4905C1.24835 16.3449 0 18.4412 0 20.1557V49.845C0 50.6994 0.310623 51.6507 0.814652 52.4995L32 35.0004L63.1853 17.5013Z" fill="#01D5A1"/>
<path fill-rule="evenodd" clip-rule="evenodd" d="M32 55.735C20.2373 55.735 10.6666 46.4329 10.6666 35.0004C10.6666 23.5678 20.2373 14.2657 32 14.2657C39.5897 14.2657 46.6696 18.2361 50.4732 24.6274L41.2425 29.8224C39.3377 26.6211 35.7978 24.6388 32 24.6388C26.1157 24.6388 21.3333 29.287 21.3333 35.0061C21.3333 40.7195 26.1157 45.3734 32 45.3734C35.7978 45.3734 39.3377 43.3854 41.2425 40.1897L50.4732 45.3848C46.6696 51.7646 39.5897 55.735 32 55.735Z" fill="white"/>
<path fill-rule="evenodd" clip-rule="evenodd" d="M53.3333 33.8497H50.9597V31.5427H48.5919V33.8497H46.2183V36.151H48.5919V38.4581H50.9597V36.151H53.3333V33.8497Z" fill="white"/>
<path fill-rule="evenodd" clip-rule="evenodd" d="M62.2183 33.8497H59.8505V31.5427H57.4769V33.8497H55.1091V36.151H57.4769V38.4581H59.8505V36.151H62.2183V33.8497Z" fill="white"/>
</svg>
