<svg width="44" height="46" viewBox="0 0 44 46" fill="none" xmlns="http://www.w3.org/2000/svg">
<path fill-rule="evenodd" clip-rule="evenodd" d="M43.4399 34.4985C43.7864 33.9445 44 33.3156 44 32.754V13.2427C44 12.6811 43.7864 12.056 43.4399 11.4982L22 22.9983L43.4399 34.4985Z" fill="#01D5A2"/>
<path fill-rule="evenodd" clip-rule="evenodd" d="M23.9058 45.5757L42.0941 35.8201C42.6179 35.5393 43.0934 35.0526 43.4399 34.4986L22 22.9984L0.560059 34.4986C0.906579 35.0526 1.38204 35.5393 1.90585 35.8201L20.0941 45.5757C21.1417 46.1373 22.8542 46.1373 23.9058 45.5757Z" fill="#01D5A2"/>
<path fill-rule="evenodd" clip-rule="evenodd" d="M43.4399 11.4983C43.0934 10.9443 42.6179 10.4576 42.0941 10.1768L23.9059 0.421149C22.8582 -0.140383 21.1418 -0.140383 20.0941 0.421149L1.90586 10.1768C0.858242 10.7384 0 12.1197 0 13.2428V32.7542C0 33.3157 0.213553 33.9409 0.560073 34.4987L22 22.9985L43.4399 11.4983Z" fill="#01D5A1"/>
<path fill-rule="evenodd" clip-rule="evenodd" d="M21.9999 36.625C13.9131 36.625 7.33325 30.5118 7.33325 22.9985C7.33325 15.4852 13.9131 9.37195 21.9999 9.37195C27.2179 9.37195 32.0853 11.9812 34.7003 16.1815L28.3541 19.5956C27.0446 17.4917 24.6109 16.1889 21.9999 16.1889C17.9545 16.1889 14.6666 19.2437 14.6666 23.0022C14.6666 26.757 17.9545 29.8155 21.9999 29.8155C24.6109 29.8155 27.0446 28.509 28.3541 26.4088L34.7003 29.8229C32.0853 34.0157 27.2179 36.625 21.9999 36.625Z" fill="white"/>
</svg>
