<?xml version="1.0" encoding="UTF-8" standalone="no"?>
<!-- Created with Inkscape (http://www.inkscape.org/) -->

<svg
   xmlns:dc="http://purl.org/dc/elements/1.1/"
   xmlns:cc="http://creativecommons.org/ns#"
   xmlns:rdf="http://www.w3.org/1999/02/22-rdf-syntax-ns#"
   xmlns:svg="http://www.w3.org/2000/svg"
   xmlns="http://www.w3.org/2000/svg"
   xmlns:sodipodi="http://sodipodi.sourceforge.net/DTD/sodipodi-0.dtd"
   xmlns:inkscape="http://www.inkscape.org/namespaces/inkscape"
   width="700mm"
   height="700mm"
   viewBox="0 0 700 700"
   version="1.1"
   id="svg3856"
   inkscape:version="0.92.4 (5da689c313, 2019-01-14)"
   sodipodi:docname="ufmg-logo.svg"
   inkscape:export-filename="C:\Users\suitedoalex\sites\ufmg-logo-0.png"
   inkscape:export-xdpi="148.6263"
   inkscape:export-ydpi="148.6263">
  <defs
     id="defs3850" />
  <sodipodi:namedview
     id="base"
     pagecolor="#ffffff"
     bordercolor="#666666"
     borderopacity="1.0"
     inkscape:pageopacity="0.0"
     inkscape:pageshadow="2"
     inkscape:zoom="0.12374369"
     inkscape:cx="514.41046"
     inkscape:cy="650.86621"
     inkscape:document-units="mm"
     inkscape:current-layer="g1853"
     showgrid="false"
     inkscape:window-width="1600"
     inkscape:window-height="837"
     inkscape:window-x="-8"
     inkscape:window-y="-8"
     inkscape:window-maximized="1" />
  <metadata
     id="metadata3853">
    <rdf:RDF>
      <cc:Work
         rdf:about="">
        <dc:format>image/svg+xml</dc:format>
        <dc:type
           rdf:resource="http://purl.org/dc/dcmitype/StillImage" />
        <dc:title></dc:title>
      </cc:Work>
    </rdf:RDF>
  </metadata>
  <g
     inkscape:label="Layer 1"
     inkscape:groupmode="layer"
     id="layer1"
     transform="translate(0,403)">
    <g
       transform="matrix(4.4846285,0,0,4.4846285,-201.16084,-2799.1623)"
       id="g1759">
      <path
         inkscape:connector-curvature="0"
         class="st0"
         d="m 67.599999,601.80001 v -11 c 0,-1 -0.8,-1.3 -1.7,-1.4 v -1 h 6.7 v 1 c -0.8,0.1 -1.5,0.4 -1.5,1.3 v 10.9 c 0,3.7 2.3,5.2 5.4,5.2 5.6,0 5.6,-4.3 5.6,-8.3 v -4.7 c 0,-3.4 -0.3,-4.1 -2,-4.3 v -1 h 5.6 v 0.9 c -1,0.1 -1.8,0.6 -1.8,2.8 v 8.1 c 0,4.6 -2.2,8.1 -8,8.1 -5.2,0 -8.3,-1.9 -8.3,-6.6 z"
         id="path1679"
         inkscape:export-filename="C:\Users\suitedoalex\sites\ufmg-logo-5.png"
         inkscape:export-xdpi="19.872953"
         inkscape:export-ydpi="19.872953" />
      <path
         inkscape:connector-curvature="0"
         class="st0"
         d="m 96.699999,605.70001 v -14.5 c 0,-1.2 -0.7,-1.6 -1.9,-1.7 v -1.1 c 2.2,0 4.5,0.1 6.700001,0.1 3.8,0 6.1,0 8.4,-0.1 l 0.1,3.2 h -1 c -0.6,-1.6 -1.6,-1.9 -4.6,-1.9 h -4.3 v 7.5 h 3.8 c 1.6,0 2.5,0 2.8,-1.3 h 0.8 v 3.8 h -0.8 c -0.3,-1.1 -1,-1.2 -2.7,-1.2 h -3.8 v 6.4 c 0,2 0.8,2.5 2.4,2.5 v 0.9 h -7.800001 v -1 c 1.2,0 1.9,-0.4 1.9,-1.6 z"
         id="path1681"
         inkscape:export-filename="C:\Users\suitedoalex\sites\ufmg-logo-5.png"
         inkscape:export-xdpi="19.872953"
         inkscape:export-ydpi="19.872953" />
      <path
         inkscape:connector-curvature="0"
         class="st0"
         d="m 178.3,602.50001 v 1.3 3.8 c -2,0.5 -4.6,1.2 -7.5,1.2 -6.4,0 -10.9,-4.5 -10.9,-10.1 0,-6.4 5,-10.4 11.2,-10.4 1,0 1.9,0.1 3.8,0.4 0.5,0.1 3.1,0.6 3.7,0.7 l 0.3,3.7 h -1.3 c -0.9,-1.8 -2.2,-3.4 -5.6,-3.4 -4.4,0 -8,2.6 -8,9 0,3.7 2.1,8.9 8.4,8.9 1,0 1.9,-0.2 2.8,-0.6 0,-0.4 0.1,-2.6 0.1,-3.1 0,-1.8 -0.2,-2.5 -1.6,-2.7 v -1 h 6.2 v 0.9 c -1.3,-0.1 -1.6,0.3 -1.6,1.4 z"
         id="path1683"
         inkscape:export-filename="C:\Users\suitedoalex\sites\ufmg-logo-5.png"
         inkscape:export-xdpi="19.872953"
         inkscape:export-ydpi="19.872953" />
      <path
         inkscape:connector-curvature="0"
         class="st1"
         d="m 151.3,602.50001 c -0.7,0.7 -3,2.7 -3.8,2.7 -0.3,0 -0.7,-0.2 -0.7,-0.5 0,-0.5 0.4,-1.3 0.6,-2 l 3.5,-10.1 c 0.2,-0.6 0.4,-1.4 0.4,-2.1 0,-1 -0.4,-1.8 -1.7,-1.8 -4.1,0 -10.6,7.3 -12.9,10.2 h -0.1 l 2.1,-6.4 c 0.3,-0.8 0.5,-1.6 0.5,-2.3 0,-0.8 -0.6,-1.4 -1.9,-1.4 -3.8,0 -10.2,7.1 -12.3,10.1 h -0.1 l 2.2,-6.5 c 0.2,-0.5 0.5,-1.3 0.5,-2.1 0,-0.8 -0.4,-1.5 -1.5,-1.5 -2.9,0 -5.9,3.5 -7.5,5.5 0,0 -0.4,0.5 -0.1,0.8 0.4,0.3 0.7,0 0.7,0 l 1.2,-1.3 c 0.8,-0.8 1.6,-1.5 2.5,-1.5 0.5,0 0.7,0.4 0.7,0.9 0,0.4 -0.1,0.8 -0.2,1.1 l -4.5,13.6 c -0.1,0.5 0.8,0.8 1.3,0.8 1.1,0 1.6,-0.3 1.7,-0.7 l 0.8,-2.3 c 1.2,-3.3 3,-6.3 5.4,-8.8 1.4,-1.5 4,-4.5 6.3,-4.5 0.6,0 0.8,0.5 0.8,1.1 0,1.1 -0.6,2.8 -0.7,3.2 l -3.8,11.3 c -0.1,0.4 0.3,0.8 1.5,0.9 1.1,0 1.4,-0.4 1.5,-0.8 l 0.7,-1.8 c 1.2,-3.1 2.4,-5.4 4.4,-7.9 1.4,-1.7 5.3,-6.1 7.6,-6.1 0.5,0 1,0.3 1,1 0,0.4 -0.3,1.2 -0.5,1.8 l -3.5,10 c -0.3,0.9 -0.5,1.6 -0.5,2 0,1.1 0.8,1.5 1.6,1.5 2.4,0 4.4,-1.9 6.1,-3.8 l 1.3,-1.5 c 0,0 0.4,-0.4 0,-0.7 -0.3,-0.4 -0.6,-0.1 -0.6,-0.1 z"
         id="path1685"
         style="fill:#ce181e;fill-opacity:1"
         inkscape:export-filename="C:\Users\suitedoalex\sites\ufmg-logo-5.png"
         inkscape:export-xdpi="19.872953"
         inkscape:export-ydpi="19.872953" />
      <rect
         x="119.1"
         y="614"
         class="st2"
         width="29.9"
         height="7.1999998"
         id="rect1687"
         style="fill:#ce181e;fill-opacity:1"
         inkscape:export-filename="C:\Users\suitedoalex\sites\ufmg-logo-5.png"
         inkscape:export-xdpi="19.872953"
         inkscape:export-ydpi="19.872953" />
      <g
         id="g1757"
         transform="translate(-5.9090738e-7,8.4789631e-6)"
         inkscape:export-filename="C:\Users\suitedoalex\sites\ufmg-logo-5.png"
         inkscape:export-xdpi="19.872953"
         inkscape:export-ydpi="19.872953">
        <g
           id="g1727">
          <path
             inkscape:connector-curvature="0"
             d="m 121.5,629.7 c -0.2,0.2 -0.5,0.3 -1,0.3 -0.6,0 -1,-0.2 -1.2,-0.5 -0.1,-0.2 -0.2,-0.4 -0.2,-0.7 v -2.2 h 0.7 v 2.1 c 0,0.2 0,0.4 0.1,0.5 0.1,0.2 0.3,0.3 0.6,0.3 0.2,0 0.4,-0.1 0.5,-0.2 0.1,-0.1 0.1,-0.2 0.1,-0.5 v -2.1 h 0.7 v 2.2 c 0,0.4 -0.1,0.6 -0.3,0.8 z"
             id="path1689" />
          <path
             inkscape:connector-curvature="0"
             d="m 124.7,630 -0.8,-1.5 c -0.2,-0.3 -0.4,-0.7 -0.4,-0.9 0,0.2 0,0.6 0,0.9 v 1.5 h -0.7 v -3.3 h 0.8 l 0.8,1.5 c 0.2,0.3 0.3,0.6 0.4,0.8 0,-0.2 -0.1,-0.5 -0.1,-0.9 v -1.4 h 0.7 v 3.3 z"
             id="path1691" />
          <path
             inkscape:connector-curvature="0"
             d="m 126.6,630 v -3.3 h 0.7 v 3.3 z"
             id="path1693" />
          <path
             inkscape:connector-curvature="0"
             d="m 129.9,630 h -0.6 l -1.3,-3.4 h 0.8 l 0.6,1.6 c 0.1,0.3 0.2,0.6 0.2,0.7 0,-0.1 0.1,-0.4 0.2,-0.7 l 0.7,-1.6 h 0.7 z"
             id="path1695" />
          <path
             inkscape:connector-curvature="0"
             d="m 131.7,630 v -3.3 h 2.1 l -0.1,0.5 h -1.3 v 0.8 h 1.1 v 0.6 h -1.1 v 0.9 h 1.4 v 0.6 h -2.1 z"
             id="path1697" />
          <path
             inkscape:connector-curvature="0"
             d="m 136.6,630 -0.3,-0.5 c -0.3,-0.5 -0.4,-0.7 -0.6,-0.8 -0.1,0 -0.2,-0.1 -0.2,-0.1 v 1.4 h -0.7 v -3.3 h 1.1 c 0.4,0 0.7,0.1 1,0.2 0.2,0.2 0.3,0.4 0.3,0.7 0,0.5 -0.4,0.9 -0.8,0.9 0,0 0.1,0.1 0.2,0.2 0.1,0.1 0.3,0.4 0.4,0.6 l 0.5,0.7 z m -1.1,-2.8 v 0.9 h 0.3 c 0.3,0 0.5,0 0.6,-0.1 0.1,-0.1 0.1,-0.2 0.1,-0.3 0,-0.2 -0.1,-0.3 -0.3,-0.4 -0.1,0 -0.2,0 -0.4,0 h -0.3 z"
             id="path1699" />
          <path
             inkscape:connector-curvature="0"
             d="m 140.1,629.9 c -0.2,0.1 -0.6,0.2 -0.9,0.2 -0.4,0 -0.8,-0.1 -1.2,-0.3 l 0.3,-0.5 c 0.3,0.2 0.6,0.3 1,0.3 0.2,0 0.3,0 0.5,-0.1 0.1,-0.1 0.2,-0.2 0.2,-0.3 0,-0.2 -0.2,-0.4 -0.5,-0.4 l -0.4,-0.1 c -0.3,-0.1 -0.6,-0.2 -0.7,-0.4 -0.1,-0.2 -0.1,-0.3 -0.1,-0.5 0,-0.6 0.5,-1 1.3,-1 0.4,0 0.9,0.1 1.2,0.3 l -0.3,0.5 c -0.3,-0.2 -0.6,-0.3 -0.9,-0.3 -0.3,0 -0.6,0.1 -0.6,0.4 0,0.2 0.1,0.3 0.5,0.4 l 0.4,0.1 c 0.3,0.1 0.5,0.2 0.7,0.3 0.2,0.2 0.2,0.4 0.2,0.6 -0.1,0.2 -0.3,0.6 -0.7,0.8 z"
             id="path1701" />
          <path
             inkscape:connector-curvature="0"
             d="m 141.6,630 v -3.3 h 0.7 v 3.3 z"
             id="path1703" />
          <path
             inkscape:connector-curvature="0"
             d="m 145.1,626.7 c 0.6,0.2 1,0.6 1,1.6 0,1 -0.6,1.5 -1.1,1.6 -0.2,0.1 -0.4,0.1 -0.7,0.1 h -0.9 v -3.3 h 0.7 c 0.4,0 0.7,0 1,0 z m 0,0.8 c -0.2,-0.2 -0.4,-0.3 -0.7,-0.3 H 144 v 2.3 h 0.4 c 0.1,0 0.2,0 0.4,-0.1 0.2,-0.1 0.4,-0.3 0.4,-1 0.1,-0.4 0.1,-0.7 -0.1,-0.9 z"
             id="path1705" />
          <path
             inkscape:connector-curvature="0"
             d="m 148.9,630 -0.3,-0.8 h -1.1 l -0.3,0.8 h -0.7 l 1.2,-3.3 h 0.8 l 1.2,3.3 z m -0.8,-2.7 c 0,0.2 -0.4,1.2 -0.4,1.4 h 0.8 c -0.1,-0.3 -0.4,-1.2 -0.4,-1.4 z"
             id="path1707" />
          <path
             inkscape:connector-curvature="0"
             d="m 151.9,626.7 c 0.6,0.2 1,0.6 1,1.6 0,1 -0.6,1.5 -1.1,1.6 -0.2,0.1 -0.4,0.1 -0.7,0.1 h -0.9 v -3.3 h 0.7 c 0.5,0 0.8,0 1,0 z m 0.1,0.8 c -0.2,-0.2 -0.4,-0.3 -0.7,-0.3 H 151 v 2.3 h 0.4 c 0.1,0 0.2,0 0.4,-0.1 0.2,-0.1 0.4,-0.3 0.4,-1 0,-0.4 -0.1,-0.7 -0.2,-0.9 z"
             id="path1709" />
          <path
             inkscape:connector-curvature="0"
             d="m 153.9,630 v -3.3 h 2.1 l -0.1,0.5 h -1.3 v 0.8 h 1.1 v 0.6 h -1.1 v 0.9 h 1.4 v 0.6 h -2.1 z"
             id="path1711" />
          <path
             inkscape:connector-curvature="0"
             d="m 160.3,627.2 h -1.2 v 0.8 h 1 v 0.6 h -1 v 1.5 h -0.7 v -3.3 h 2 z"
             id="path1713" />
          <path
             inkscape:connector-curvature="0"
             d="m 161.2,630 v -3.3 h 2.1 l -0.1,0.5 h -1.3 v 0.8 h 1.1 v 0.6 h -1.1 v 0.9 h 1.4 v 0.6 h -2.1 z"
             id="path1715" />
          <path
             inkscape:connector-curvature="0"
             d="m 165.9,626.7 c 0.6,0.2 1,0.6 1,1.6 0,1 -0.6,1.5 -1.1,1.6 -0.2,0.1 -0.4,0.1 -0.7,0.1 h -0.9 v -3.3 h 0.7 c 0.5,0 0.8,0 1,0 z m 0.1,0.8 c -0.2,-0.2 -0.4,-0.3 -0.7,-0.3 H 165 v 2.3 h 0.4 c 0.1,0 0.2,0 0.4,-0.1 0.2,-0.1 0.4,-0.3 0.4,-1 0,-0.4 -0.1,-0.7 -0.2,-0.9 z"
             id="path1717" />
          <path
             inkscape:connector-curvature="0"
             d="m 167.9,630 v -3.3 h 2.1 l -0.1,0.5 h -1.3 v 0.8 h 1.1 v 0.6 h -1.1 v 0.9 h 1.4 v 0.6 h -2.1 z"
             id="path1719" />
          <path
             inkscape:connector-curvature="0"
             d="m 172.8,630 -0.3,-0.5 c -0.3,-0.5 -0.4,-0.7 -0.6,-0.8 -0.1,0 -0.2,-0.1 -0.2,-0.1 V 630 H 171 v -3.3 h 1.1 c 0.4,0 0.7,0.1 1,0.2 0.2,0.2 0.3,0.4 0.3,0.7 0,0.5 -0.4,0.9 -0.8,0.9 0,0 0.1,0.1 0.2,0.2 0.1,0.1 0.3,0.4 0.4,0.6 l 0.5,0.7 z m -1.1,-2.8 v 0.9 h 0.3 c 0.3,0 0.5,0 0.6,-0.1 0.1,-0.1 0.1,-0.2 0.1,-0.3 0,-0.2 -0.1,-0.3 -0.3,-0.4 -0.1,0 -0.2,0 -0.4,0 h -0.3 z"
             id="path1721" />
          <path
             inkscape:connector-curvature="0"
             d="m 176.4,630 -0.3,-0.8 H 175 l -0.3,0.8 H 174 l 1.2,-3.3 h 0.8 l 1.2,3.3 z m -0.9,-2.7 c 0,0.2 -0.4,1.2 -0.4,1.4 h 0.8 c -0.1,-0.3 -0.4,-1.2 -0.4,-1.4 z"
             id="path1723" />
          <path
             inkscape:connector-curvature="0"
             d="m 179.7,630 h -1.9 v -3.3 h 0.7 v 2.8 h 1.4 z"
             id="path1725" />
        </g>
        <g
           id="g1755">
          <path
             inkscape:connector-curvature="0"
             d="m 120.8,633 c 0.6,0.2 1,0.6 1,1.6 0,1 -0.6,1.5 -1.1,1.6 -0.2,0.1 -0.4,0.1 -0.7,0.1 h -0.9 V 633 h 0.7 c 0.5,-0.1 0.8,-0.1 1,0 z m 0.1,0.8 c -0.2,-0.2 -0.4,-0.3 -0.7,-0.3 h -0.4 v 2.3 h 0.4 c 0.1,0 0.2,0 0.4,-0.1 0.2,-0.1 0.4,-0.3 0.4,-1 0.1,-0.4 0,-0.7 -0.1,-0.9 z"
             id="path1729" />
          <path
             inkscape:connector-curvature="0"
             d="M 122.8,636.3 V 633 h 2.1 l -0.1,0.5 h -1.3 v 0.8 h 1.1 v 0.6 h -1.1 v 0.9 h 1.4 v 0.6 h -2.1 z"
             id="path1731" />
          <path
             inkscape:connector-curvature="0"
             d="m 130.3,636.3 -0.1,-1.9 c 0,-0.2 0,-0.5 0,-0.6 0,0.1 -0.1,0.4 -0.2,0.6 l -0.6,1.9 h -0.6 l -0.6,-1.9 c -0.1,-0.2 -0.1,-0.5 -0.2,-0.7 0,0.1 0,0.5 0,0.7 l -0.1,1.9 h -0.7 l 0.4,-3.3 h 0.9 l 0.5,1.7 c 0.1,0.2 0.1,0.5 0.2,0.6 0,-0.1 0.1,-0.4 0.2,-0.7 l 0.5,-1.7 h 0.9 l 0.3,3.3 h -0.8 z"
             id="path1733" />
          <path
             inkscape:connector-curvature="0"
             d="M 132,636.3 V 633 h 0.7 v 3.3 z"
             id="path1735" />
          <path
             inkscape:connector-curvature="0"
             d="m 135.7,636.3 -0.8,-1.5 c -0.2,-0.3 -0.4,-0.7 -0.4,-0.9 0,0.2 0,0.6 0,0.9 v 1.5 h -0.7 V 633 h 0.8 l 0.8,1.5 c 0.2,0.3 0.3,0.6 0.4,0.8 0,-0.2 -0.1,-0.5 -0.1,-0.9 V 633 h 0.7 v 3.3 z"
             id="path1737" />
          <path
             inkscape:connector-curvature="0"
             d="m 139.4,636.3 -0.3,-0.8 H 138 l -0.3,0.8 H 137 l 1.2,-3.3 h 0.8 l 1.2,3.3 z m -0.8,-2.7 c 0,0.2 -0.4,1.2 -0.4,1.4 h 0.8 c -0.1,-0.3 -0.4,-1.2 -0.4,-1.4 z"
             id="path1739" />
          <path
             inkscape:connector-curvature="0"
             d="m 142.7,636.1 c -0.2,0.1 -0.6,0.2 -0.9,0.2 -0.4,0 -0.8,-0.1 -1.2,-0.3 l 0.3,-0.5 c 0.3,0.2 0.6,0.3 1,0.3 0.2,0 0.3,0 0.5,-0.1 0.1,-0.1 0.2,-0.2 0.2,-0.3 0,-0.2 -0.2,-0.4 -0.5,-0.4 l -0.4,-0.1 c -0.3,-0.1 -0.6,-0.2 -0.7,-0.4 -0.1,-0.2 -0.1,-0.3 -0.1,-0.5 0,-0.6 0.5,-1 1.3,-1 0.4,0 0.9,0.1 1.2,0.3 l -0.3,0.5 c -0.3,-0.2 -0.6,-0.3 -0.9,-0.3 -0.3,0 -0.6,0.1 -0.6,0.4 0,0.2 0.1,0.3 0.5,0.4 l 0.4,0.1 c 0.3,0.1 0.5,0.2 0.7,0.3 0.2,0.2 0.2,0.4 0.2,0.6 -0.1,0.3 -0.3,0.7 -0.7,0.8 z"
             id="path1741" />
          <path
             inkscape:connector-curvature="0"
             d="m 147.1,636.3 c -0.6,0 -0.9,-0.2 -1.3,-0.5 -0.3,-0.3 -0.4,-0.7 -0.4,-1.2 0,-0.7 0.2,-1.1 0.7,-1.4 0.3,-0.2 0.6,-0.3 1,-0.3 0.4,0 0.8,0.1 1.2,0.4 l -0.4,0.4 c -0.2,-0.2 -0.5,-0.3 -0.8,-0.3 -0.4,0 -0.7,0.2 -0.8,0.5 -0.1,0.2 -0.1,0.5 -0.1,0.8 0,0.5 0.1,0.8 0.4,1 0.2,0.1 0.3,0.2 0.6,0.2 0.2,0 0.3,0 0.4,-0.1 V 635 H 147 l -0.1,-0.5 h 1.4 v 1.6 c -0.4,0.1 -0.8,0.2 -1.2,0.2 z"
             id="path1743" />
          <path
             inkscape:connector-curvature="0"
             d="M 149.2,636.3 V 633 h 2.1 l -0.1,0.5 h -1.3 v 0.8 h 1.1 v 0.6 h -1.1 v 0.9 h 1.4 v 0.6 h -2.1 z"
             id="path1745" />
          <path
             inkscape:connector-curvature="0"
             d="m 154.1,636.3 -0.3,-0.5 c -0.3,-0.5 -0.4,-0.7 -0.6,-0.8 -0.1,0 -0.2,-0.1 -0.2,-0.1 v 1.4 h -0.7 V 633 h 1.1 c 0.4,0 0.7,0.1 1,0.2 0.2,0.2 0.3,0.4 0.3,0.7 0,0.5 -0.4,0.9 -0.8,0.9 0,0 0.1,0.1 0.2,0.2 0.1,0.1 0.3,0.4 0.4,0.6 l 0.5,0.7 z m -1.1,-2.8 v 0.9 h 0.3 c 0.3,0 0.5,0 0.6,-0.1 0.1,-0.1 0.1,-0.2 0.1,-0.3 0,-0.2 -0.1,-0.3 -0.3,-0.4 -0.1,0 -0.2,0 -0.4,0 H 153 Z"
             id="path1747" />
          <path
             inkscape:connector-curvature="0"
             d="m 157.7,636.3 -0.3,-0.8 h -1.1 l -0.3,0.8 h -0.7 l 1.2,-3.3 h 0.8 l 1.2,3.3 z m -0.8,-2.7 c 0,0.2 -0.4,1.2 -0.4,1.4 h 0.8 c -0.1,-0.3 -0.4,-1.2 -0.4,-1.4 z"
             id="path1749" />
          <path
             inkscape:connector-curvature="0"
             d="M 159.1,636.3 V 633 h 0.7 v 3.3 z"
             id="path1751" />
          <path
             inkscape:connector-curvature="0"
             d="m 162.7,636.1 c -0.2,0.1 -0.6,0.2 -0.9,0.2 -0.4,0 -0.8,-0.1 -1.2,-0.3 l 0.3,-0.5 c 0.3,0.2 0.6,0.3 1,0.3 0.2,0 0.3,0 0.5,-0.1 0.1,-0.1 0.2,-0.2 0.2,-0.3 0,-0.2 -0.2,-0.4 -0.5,-0.4 l -0.4,-0.1 c -0.3,-0.1 -0.6,-0.2 -0.7,-0.4 -0.1,-0.2 -0.1,-0.3 -0.1,-0.5 0,-0.6 0.5,-1 1.3,-1 0.4,0 0.9,0.1 1.2,0.3 l -0.3,0.5 c -0.3,-0.2 -0.6,-0.3 -0.9,-0.3 -0.3,0 -0.6,0.1 -0.6,0.4 0,0.2 0.1,0.3 0.5,0.4 l 0.4,0.1 c 0.3,0.1 0.5,0.2 0.7,0.3 0.2,0.2 0.2,0.4 0.2,0.6 -0.1,0.3 -0.3,0.7 -0.7,0.8 z"
             id="path1753" />
        </g>
      </g>
      <g
         transform="matrix(1.2102337,0,0,1.2102337,-254.54993,-40.330536)"
         id="g1853">
        <g
           id="g1841"
           transform="translate(-0.3181466)"
           inkscape:export-filename="C:\Users\suitedoalex\sites\ufmg-logo-4.png"
           inkscape:export-xdpi="15.219235"
           inkscape:export-ydpi="15.219235">
          <g
             id="g1811">
            <path
               inkscape:connector-curvature="0"
               d="m 315.2,619.6 c -0.2,0.2 -0.5,0.3 -1,0.3 -0.6,0 -1,-0.2 -1.2,-0.5 -0.1,-0.2 -0.2,-0.4 -0.2,-0.7 v -2.2 h 0.7 v 2.1 c 0,0.2 0,0.4 0.1,0.5 0.1,0.2 0.3,0.3 0.6,0.3 0.2,0 0.4,-0.1 0.5,-0.2 0.1,-0.1 0.1,-0.2 0.1,-0.5 v -2.1 h 0.7 v 2.2 c 0,0.4 -0.1,0.6 -0.3,0.8 z"
               id="path1773" />
            <path
               inkscape:connector-curvature="0"
               d="m 318.4,619.8 -0.8,-1.5 c -0.2,-0.3 -0.4,-0.7 -0.4,-0.9 0,0.2 0,0.6 0,0.9 v 1.5 h -0.7 v -3.3 h 0.8 l 0.8,1.5 c 0.2,0.3 0.3,0.6 0.4,0.8 0,-0.2 -0.1,-0.5 -0.1,-0.9 v -1.4 h 0.7 v 3.3 z"
               id="path1775" />
            <path
               inkscape:connector-curvature="0"
               d="m 320.3,619.8 v -3.3 h 0.7 v 3.3 z"
               id="path1777" />
            <path
               inkscape:connector-curvature="0"
               d="m 323.5,619.9 h -0.6 l -1.3,-3.4 h 0.8 l 0.6,1.6 c 0.1,0.3 0.2,0.6 0.2,0.7 0,-0.1 0.1,-0.4 0.2,-0.7 l 0.7,-1.6 h 0.7 z"
               id="path1779" />
            <path
               inkscape:connector-curvature="0"
               d="m 325.4,619.8 v -3.3 h 2.1 l -0.1,0.5 h -1.3 v 0.8 h 1.1 v 0.6 h -1.1 v 0.9 h 1.4 v 0.6 h -2.1 z"
               id="path1781" />
            <path
               inkscape:connector-curvature="0"
               d="m 330.3,619.8 -0.3,-0.5 c -0.3,-0.5 -0.4,-0.7 -0.6,-0.8 -0.1,-0.1 -0.2,-0.1 -0.2,-0.1 v 1.4 h -0.7 v -3.3 h 1.1 c 0.4,0 0.8,0.1 1,0.2 0.2,0.2 0.3,0.4 0.3,0.7 0,0.5 -0.4,0.9 -0.8,0.9 0,0 0.1,0.1 0.2,0.2 0.1,0.1 0.3,0.4 0.4,0.6 l 0.5,0.7 z m -1.1,-2.8 v 0.9 h 0.3 c 0.3,0 0.5,0 0.6,-0.1 0.1,-0.1 0.1,-0.2 0.1,-0.3 0,-0.2 -0.1,-0.3 -0.3,-0.4 -0.1,0 -0.2,-0.1 -0.4,-0.1 z"
               id="path1783" />
            <path
               inkscape:connector-curvature="0"
               d="m 333.8,619.7 c -0.2,0.1 -0.6,0.2 -0.9,0.2 -0.4,0 -0.8,-0.1 -1.2,-0.3 l 0.3,-0.5 c 0.3,0.2 0.6,0.3 1,0.3 0.2,0 0.3,0 0.5,-0.1 0.1,-0.1 0.2,-0.2 0.2,-0.3 0,-0.2 -0.2,-0.4 -0.5,-0.4 l -0.4,-0.1 c -0.3,-0.1 -0.6,-0.2 -0.7,-0.4 -0.1,-0.2 -0.1,-0.3 -0.1,-0.5 0,-0.6 0.5,-1 1.3,-1 0.4,0 0.9,0.1 1.2,0.3 l -0.3,0.5 c -0.3,-0.2 -0.6,-0.3 -0.9,-0.3 -0.3,0 -0.6,0.1 -0.6,0.4 0,0.2 0.1,0.3 0.5,0.4 l 0.4,0.1 c 0.3,0.1 0.5,0.2 0.7,0.3 0.2,0.2 0.2,0.4 0.2,0.6 -0.1,0.3 -0.3,0.6 -0.7,0.8 z"
               id="path1785" />
            <path
               inkscape:connector-curvature="0"
               d="m 335.3,619.8 v -3.3 h 0.7 v 3.3 z"
               id="path1787" />
            <path
               inkscape:connector-curvature="0"
               d="m 338.8,616.6 c 0.6,0.2 1,0.6 1,1.6 0,1 -0.6,1.5 -1.1,1.6 -0.2,0.1 -0.4,0.1 -0.7,0.1 h -0.9 v -3.3 h 0.7 c 0.4,-0.1 0.7,-0.1 1,0 z m 0.1,0.8 c -0.2,-0.2 -0.4,-0.3 -0.7,-0.3 h -0.4 v 2.3 h 0.4 c 0.1,0 0.2,0 0.4,-0.1 0.2,-0.1 0.4,-0.3 0.4,-1 0.1,-0.5 0,-0.7 -0.1,-0.9 z"
               id="path1789" />
            <path
               inkscape:connector-curvature="0"
               d="m 342.6,619.8 -0.3,-0.8 h -1.1 l -0.3,0.8 h -0.7 l 1.2,-3.4 h 0.8 l 1.2,3.4 z m -0.8,-2.7 c 0,0.2 -0.4,1.2 -0.4,1.4 h 0.8 c -0.1,-0.2 -0.4,-1.2 -0.4,-1.4 z"
               id="path1791" />
            <path
               inkscape:connector-curvature="0"
               d="m 345.7,616.6 c 0.6,0.2 1,0.6 1,1.6 0,1 -0.6,1.5 -1.1,1.6 -0.2,0.1 -0.4,0.1 -0.7,0.1 H 344 v -3.3 h 0.7 c 0.4,-0.1 0.7,-0.1 1,0 z m 0,0.8 c -0.2,-0.2 -0.4,-0.3 -0.7,-0.3 h -0.4 v 2.3 h 0.4 c 0.1,0 0.2,0 0.4,-0.1 0.2,-0.1 0.4,-0.3 0.4,-1 0.1,-0.5 0.1,-0.7 -0.1,-0.9 z"
               id="path1793" />
            <path
               inkscape:connector-curvature="0"
               d="m 347.6,619.8 v -3.3 h 2.1 l -0.1,0.5 h -1.3 v 0.8 h 1.1 v 0.6 h -1.1 v 0.9 h 1.4 v 0.6 h -2.1 z"
               id="path1795" />
            <path
               inkscape:connector-curvature="0"
               d="m 354.1,617 h -1.2 v 0.8 h 1 v 0.6 h -1 v 1.5 h -0.7 v -3.3 h 2 z"
               id="path1797" />
            <path
               inkscape:connector-curvature="0"
               d="m 354.9,619.8 v -3.3 h 2.1 l -0.1,0.5 h -1.3 v 0.8 h 1.1 v 0.6 h -1.1 v 0.9 h 1.4 v 0.6 h -2.1 z"
               id="path1799" />
            <path
               inkscape:connector-curvature="0"
               d="m 359.7,616.6 c 0.6,0.2 1,0.6 1,1.6 0,1 -0.6,1.5 -1.1,1.6 -0.2,0.1 -0.4,0.1 -0.7,0.1 H 358 v -3.3 h 0.7 c 0.4,-0.1 0.7,-0.1 1,0 z m 0.1,0.8 c -0.2,-0.2 -0.4,-0.3 -0.7,-0.3 h -0.4 v 2.3 h 0.4 c 0.1,0 0.2,0 0.4,-0.1 0.2,-0.1 0.4,-0.3 0.4,-1 0.1,-0.5 0,-0.7 -0.1,-0.9 z"
               id="path1801" />
            <path
               inkscape:connector-curvature="0"
               d="m 361.7,619.8 v -3.3 h 2.1 l -0.1,0.5 h -1.3 v 0.8 h 1.1 v 0.6 h -1.1 v 0.9 h 1.4 v 0.6 h -2.1 z"
               id="path1803" />
            <path
               inkscape:connector-curvature="0"
               d="m 366.6,619.8 -0.3,-0.5 c -0.3,-0.5 -0.4,-0.7 -0.6,-0.8 -0.1,-0.1 -0.2,-0.1 -0.2,-0.1 v 1.4 h -0.7 v -3.3 h 1.1 c 0.4,0 0.8,0.1 1,0.2 0.2,0.2 0.3,0.4 0.3,0.7 0,0.5 -0.4,0.9 -0.8,0.9 0,0 0.1,0.1 0.2,0.2 0.1,0.1 0.3,0.4 0.4,0.6 l 0.5,0.7 z m -1.1,-2.8 v 0.9 h 0.3 c 0.3,0 0.5,0 0.6,-0.1 0.1,-0.1 0.1,-0.2 0.1,-0.3 0,-0.2 -0.1,-0.3 -0.3,-0.4 -0.1,0 -0.2,-0.1 -0.4,-0.1 z"
               id="path1805" />
            <path
               inkscape:connector-curvature="0"
               d="m 370.2,619.8 -0.3,-0.8 h -1.1 l -0.3,0.8 h -0.7 l 1.2,-3.4 h 0.8 l 1.2,3.4 z m -0.9,-2.7 c 0,0.2 -0.4,1.2 -0.4,1.4 h 0.8 c 0,-0.2 -0.3,-1.2 -0.4,-1.4 z"
               id="path1807" />
            <path
               inkscape:connector-curvature="0"
               d="m 373.5,619.8 h -1.9 v -3.3 h 0.7 v 2.8 h 1.4 z"
               id="path1809" />
          </g>
          <g
             id="g1839">
            <path
               inkscape:connector-curvature="0"
               d="m 314.5,622.9 c 0.6,0.2 1,0.6 1,1.6 0,1 -0.6,1.5 -1.1,1.6 -0.2,0.1 -0.4,0.1 -0.7,0.1 h -0.9 v -3.3 h 0.7 c 0.4,-0.1 0.7,-0.1 1,0 z m 0.1,0.8 c -0.2,-0.2 -0.4,-0.3 -0.7,-0.3 h -0.4 v 2.3 h 0.4 c 0.1,0 0.2,0 0.4,-0.1 0.2,-0.1 0.4,-0.3 0.4,-1 0.1,-0.4 0,-0.7 -0.1,-0.9 z"
               id="path1813" />
            <path
               inkscape:connector-curvature="0"
               d="m 316.5,626.2 v -3.3 h 2.1 l -0.1,0.5 h -1.3 v 0.8 h 1.1 v 0.6 h -1.1 v 0.9 h 1.4 v 0.6 h -2.1 z"
               id="path1815" />
            <path
               inkscape:connector-curvature="0"
               d="m 324,626.2 -0.1,-1.9 c 0,-0.2 0,-0.5 0,-0.6 0,0.1 -0.1,0.4 -0.2,0.6 l -0.6,1.9 h -0.6 l -0.6,-1.9 c -0.1,-0.2 -0.1,-0.5 -0.2,-0.7 0,0.1 0,0.5 0,0.7 l -0.1,1.9 h -0.7 l 0.4,-3.3 h 0.9 l 0.5,1.7 c 0.1,0.2 0.1,0.5 0.2,0.6 0,-0.1 0.1,-0.4 0.2,-0.7 l 0.5,-1.7 h 0.9 l 0.3,3.3 H 324 Z"
               id="path1817" />
            <path
               inkscape:connector-curvature="0"
               d="m 325.7,626.2 v -3.3 h 0.7 v 3.3 z"
               id="path1819" />
            <path
               inkscape:connector-curvature="0"
               d="m 329.4,626.2 -0.8,-1.5 c -0.2,-0.3 -0.4,-0.7 -0.4,-0.9 0,0.2 0,0.6 0,0.9 v 1.5 h -0.7 v -3.3 h 0.8 l 0.8,1.5 c 0.2,0.3 0.3,0.6 0.4,0.8 0,-0.2 -0.1,-0.5 -0.1,-0.9 v -1.4 h 0.7 v 3.3 z"
               id="path1821" />
            <path
               inkscape:connector-curvature="0"
               d="m 333.1,626.2 -0.3,-0.8 h -1.1 l -0.3,0.8 h -0.7 l 1.2,-3.4 h 0.8 l 1.2,3.4 z m -0.8,-2.8 c 0,0.2 -0.4,1.2 -0.4,1.4 h 0.8 c -0.1,-0.2 -0.4,-1.2 -0.4,-1.4 z"
               id="path1823" />
            <path
               inkscape:connector-curvature="0"
               d="m 336.4,626 c -0.2,0.1 -0.6,0.2 -0.9,0.2 -0.4,0 -0.8,-0.1 -1.2,-0.3 l 0.3,-0.5 c 0.3,0.2 0.6,0.3 1,0.3 0.2,0 0.3,0 0.5,-0.1 0.1,-0.1 0.2,-0.2 0.2,-0.3 0,-0.2 -0.2,-0.4 -0.5,-0.4 l -0.4,-0.1 c -0.3,-0.1 -0.6,-0.2 -0.7,-0.4 -0.1,-0.2 -0.1,-0.3 -0.1,-0.5 0,-0.6 0.5,-1 1.3,-1 0.4,0 0.9,0.1 1.2,0.3 l -0.3,0.5 c -0.3,-0.2 -0.6,-0.3 -0.9,-0.3 -0.3,0 -0.6,0.1 -0.6,0.4 0,0.2 0.1,0.3 0.5,0.4 l 0.4,0.1 c 0.3,0.1 0.5,0.2 0.7,0.3 0.2,0.2 0.2,0.4 0.2,0.6 -0.1,0.3 -0.3,0.6 -0.7,0.8 z"
               id="path1825" />
            <path
               inkscape:connector-curvature="0"
               d="m 340.8,626.2 c -0.6,0 -1,-0.2 -1.3,-0.5 -0.3,-0.3 -0.4,-0.7 -0.4,-1.2 0,-0.7 0.2,-1.1 0.7,-1.4 0.3,-0.2 0.6,-0.3 1,-0.3 0.4,0 0.8,0.1 1.2,0.4 l -0.4,0.4 c -0.2,-0.2 -0.5,-0.3 -0.8,-0.3 -0.4,0 -0.7,0.2 -0.8,0.5 -0.1,0.2 -0.1,0.5 -0.1,0.8 0,0.5 0.1,0.8 0.4,1 0.2,0.1 0.3,0.2 0.6,0.2 0.2,0 0.3,0 0.4,-0.1 v -0.8 h -0.6 l -0.1,-0.5 h 1.4 v 1.6 c -0.4,0.1 -0.8,0.2 -1.2,0.2 z"
               id="path1827" />
            <path
               inkscape:connector-curvature="0"
               d="m 342.9,626.2 v -3.3 h 2.1 l -0.1,0.5 h -1.3 v 0.8 h 1.1 v 0.6 h -1.1 v 0.9 h 1.4 v 0.6 h -2.1 z"
               id="path1829" />
            <path
               inkscape:connector-curvature="0"
               d="m 347.9,626.2 -0.3,-0.5 c -0.3,-0.5 -0.4,-0.7 -0.6,-0.8 -0.1,-0.1 -0.2,-0.1 -0.2,-0.1 v 1.4 h -0.7 v -3.3 h 1.1 c 0.4,0 0.8,0.1 1,0.2 0.2,0.2 0.3,0.4 0.3,0.7 0,0.5 -0.4,0.9 -0.8,0.9 0,0 0.1,0.1 0.2,0.2 0.1,0.1 0.3,0.4 0.4,0.6 l 0.5,0.7 z m -1.1,-2.9 v 0.9 h 0.3 c 0.3,0 0.5,0 0.6,-0.1 0.1,-0.1 0.1,-0.2 0.1,-0.3 0,-0.2 -0.1,-0.3 -0.3,-0.4 -0.1,0 -0.2,-0.1 -0.4,-0.1 z"
               id="path1831" />
            <path
               inkscape:connector-curvature="0"
               d="m 351.5,626.2 -0.3,-0.8 H 350 l -0.3,0.8 H 349 l 1.2,-3.4 h 0.8 l 1.2,3.4 z m -0.9,-2.8 c 0,0.2 -0.4,1.2 -0.4,1.4 h 0.8 c -0.1,-0.2 -0.4,-1.2 -0.4,-1.4 z"
               id="path1833" />
            <path
               inkscape:connector-curvature="0"
               d="m 352.8,626.2 v -3.3 h 0.7 v 3.3 z"
               id="path1835" />
            <path
               inkscape:connector-curvature="0"
               d="m 356.5,626 c -0.2,0.1 -0.6,0.2 -0.9,0.2 -0.4,0 -0.8,-0.1 -1.2,-0.3 l 0.3,-0.5 c 0.3,0.2 0.6,0.3 1,0.3 0.2,0 0.3,0 0.5,-0.1 0.1,-0.1 0.2,-0.2 0.2,-0.3 0,-0.2 -0.2,-0.4 -0.5,-0.4 l -0.4,-0.1 c -0.3,-0.1 -0.6,-0.2 -0.7,-0.4 -0.1,-0.2 -0.1,-0.3 -0.1,-0.5 0,-0.6 0.5,-1 1.3,-1 0.4,0 0.9,0.1 1.2,0.3 l -0.3,0.5 c -0.3,-0.2 -0.6,-0.3 -0.9,-0.3 -0.3,0 -0.6,0.1 -0.6,0.4 0,0.2 0.1,0.3 0.5,0.4 l 0.4,0.1 c 0.3,0.1 0.5,0.2 0.7,0.3 0.2,0.2 0.2,0.4 0.2,0.6 -0.1,0.3 -0.3,0.6 -0.7,0.8 z"
               id="path1837" />
          </g>
        </g>
        <path
           inkscape:connector-curvature="0"
           class="st0"
           d="m 251.18185,622.7 v -5.4 c 0,-0.5 -0.4,-0.6 -0.8,-0.7 v -0.5 h 3.3 v 0.5 c -0.4,0 -0.8,0.2 -0.8,0.6 v 5.3 c 0,1.8 1.1,2.5 2.6,2.5 2.7,0 2.7,-2.1 2.7,-4.1 v -2.3 c 0,-1.7 -0.1,-2 -1,-2.1 V 616 h 2.8 v 0.5 c -0.5,0.1 -0.9,0.3 -0.9,1.4 v 4 c 0,2.3 -1.1,4 -3.9,4 -2.5,0 -4,-0.9 -4,-3.2 z"
           id="path1843"
           inkscape:export-filename="C:\Users\suitedoalex\sites\ufmg-logo-4.png"
           inkscape:export-xdpi="15.219235"
           inkscape:export-ydpi="15.219235" />
        <path
           inkscape:connector-curvature="0"
           class="st0"
           d="m 265.38185,624.6 v -7.1 c 0,-0.6 -0.3,-0.8 -0.9,-0.8 v -0.5 c 1.1,0 2.2,0 3.3,0 1.8,0 3,0 4.1,0 l 0.1,1.5 h -0.5 c -0.3,-0.8 -0.8,-0.9 -2.2,-0.9 h -2.1 v 3.7 h 1.8 c 0.8,0 1.2,0 1.4,-0.7 h 0.4 v 1.9 h -0.4 c -0.1,-0.5 -0.5,-0.6 -1.3,-0.6 h -1.8 v 3.1 c 0,1 0.4,1.2 1.2,1.2 v 0.5 h -3.8 v -0.5 c 0.4,-0.1 0.7,-0.2 0.7,-0.8 z"
           id="path1845"
           inkscape:export-filename="C:\Users\suitedoalex\sites\ufmg-logo-4.png"
           inkscape:export-xdpi="15.219235"
           inkscape:export-ydpi="15.219235" />
        <path
           inkscape:connector-curvature="0"
           class="st0"
           d="m 305.38185,623 v 0.6 1.9 c -1,0.3 -2.3,0.6 -3.7,0.6 -3.1,0 -5.4,-2.2 -5.4,-4.9 0,-3.1 2.4,-5.1 5.5,-5.1 0.5,0 0.9,0.1 1.8,0.2 0.3,0 1.5,0.3 1.8,0.3 l 0.1,1.8 h -0.6 c -0.4,-0.9 -1.1,-1.7 -2.8,-1.7 -2.1,0 -3.9,1.3 -3.9,4.4 0,1.8 1,4.4 4.1,4.4 0.5,0 0.9,-0.1 1.4,-0.3 0,-0.2 0,-1.2 0,-1.5 0,-0.9 -0.1,-1.2 -0.8,-1.3 v -0.5 h 3.1 v 0.5 c -0.5,-0.1 -0.6,0.1 -0.6,0.6 z"
           id="path1847"
           inkscape:export-filename="C:\Users\suitedoalex\sites\ufmg-logo-4.png"
           inkscape:export-xdpi="15.219235"
           inkscape:export-ydpi="15.219235" />
        <path
           inkscape:connector-curvature="0"
           class="st1"
           d="m 292.08185,623 c -0.3,0.3 -1.5,1.3 -1.8,1.3 -0.1,0 -0.3,-0.1 -0.3,-0.3 0,-0.2 0.2,-0.7 0.3,-1 l 1.7,-5 c 0.1,-0.3 0.2,-0.7 0.2,-1 0,-0.5 -0.2,-0.9 -0.8,-0.9 -2,0 -5.2,3.6 -6.3,5 v 0 l 1,-3.2 c 0.1,-0.4 0.2,-0.8 0.2,-1.1 0,-0.4 -0.3,-0.7 -1,-0.7 -1.9,0 -5,3.5 -6,5 v 0 l 1.1,-3.2 c 0.1,-0.3 0.2,-0.7 0.2,-1 0,-0.4 -0.2,-0.7 -0.7,-0.7 -1.4,0 -2.9,1.7 -3.7,2.7 0,0 -0.2,0.3 0,0.4 0.2,0.2 0.4,0 0.4,0 l 0.6,-0.6 c 0.4,-0.4 0.8,-0.7 1.2,-0.7 0.3,0 0.3,0.2 0.3,0.4 0,0.2 -0.1,0.4 -0.1,0.5 l -2.2,6.7 c 0,0.2 0.4,0.4 0.6,0.4 0.5,0 0.8,-0.2 0.8,-0.3 l 0.4,-1.1 c 0.6,-1.6 1.5,-3.1 2.6,-4.3 0.7,-0.7 1.9,-2.2 3.1,-2.2 0.3,0 0.4,0.2 0.4,0.5 0,0.6 -0.3,1.4 -0.4,1.6 l -1.9,5.5 c 0,0.2 0.1,0.4 0.7,0.4 0.5,0 0.7,-0.2 0.7,-0.4 l 0.3,-0.9 c 0.6,-1.5 1.2,-2.6 2.2,-3.8 0.7,-0.8 2.6,-3 3.7,-3 0.2,0 0.5,0.2 0.5,0.5 0,0.2 -0.1,0.6 -0.2,0.9 l -1.7,4.9 c -0.2,0.4 -0.3,0.8 -0.3,1 0,0.5 0.4,0.7 0.8,0.7 1.2,0 2.2,-1 3,-1.9 l 0.7,-0.7 c 0,0 0.2,-0.2 0,-0.3 -0.1,-0.2 -0.3,-0.1 -0.3,-0.1 z"
           id="path1849"
           style="fill:#ce181e;fill-opacity:1"
           inkscape:export-filename="C:\Users\suitedoalex\sites\ufmg-logo-4.png"
           inkscape:export-xdpi="15.219235"
           inkscape:export-ydpi="15.219235" />
        <rect
           x="276.38187"
           y="628.70001"
           class="st2"
           width="14.6"
           height="3.5"
           id="rect1851"
           style="fill:#ce181e;fill-opacity:1"
           inkscape:export-filename="C:\Users\suitedoalex\sites\ufmg-logo-4.png"
           inkscape:export-xdpi="15.219235"
           inkscape:export-ydpi="15.219235" />
      </g>
    </g>
  </g>
</svg>
